<svg width="271" height="46" viewBox="0 0 271 46" fill="none" xmlns="http://www.w3.org/2000/svg">
<path d="M19.57 4.07373L43.7149 28.7039V41.9264H32.4473V33.4572L14.9106 15.5678H11.2676V41.9264H0V4.07373H19.57ZM32.4473 17.2098V4.07373H43.7149V17.2098H32.4473Z" fill="white"/>
<path d="M65.6911 40V26.2H80.1143V40H85.8124V7.45871H80.1143V20.9026H65.6911V7.45871H59.993V40H65.6911ZM90.9401 28.96C90.9401 35.8155 95.8814 40.5342 102.692 40.5342C109.503 40.5342 114.445 35.8155 114.445 28.96C114.445 22.1045 109.503 17.3858 102.692 17.3858C95.8814 17.3858 90.9401 22.1045 90.9401 28.96ZM96.371 28.96C96.371 24.9535 98.953 22.2381 102.692 22.2381C106.432 22.2381 109.014 24.9535 109.014 28.96C109.014 32.9665 106.432 35.6819 102.692 35.6819C98.953 35.6819 96.371 32.9665 96.371 28.96ZM124.18 40V27.5355C124.18 23.9742 126.273 22.2826 128.855 22.2826C131.437 22.2826 133.084 23.9297 133.084 27.0013V40H138.515V27.5355C138.515 23.9297 140.518 22.2381 143.144 22.2381C145.726 22.2381 147.418 23.8852 147.418 27.0458V40H152.804V25.6213C152.804 20.5465 149.866 17.3413 144.524 17.3413C141.186 17.3413 138.604 18.9884 137.491 21.5258C136.333 18.9884 134.018 17.3413 130.68 17.3413C127.519 17.3413 125.293 18.7658 124.18 20.591L123.735 18.009H118.749V40H124.18ZM167.974 40.5787C173.716 40.5787 177.723 37.6852 178.658 32.8774H173.627C173.004 34.9697 171.045 36.1271 168.063 36.1271C164.457 36.1271 162.409 34.1684 162.009 30.2955L178.569 30.251V28.6039C178.569 21.7484 174.384 17.3413 167.796 17.3413C161.341 17.3413 156.845 22.1045 156.845 29.0045C156.845 35.8155 161.43 40.5787 167.974 40.5787ZM167.84 21.7929C171.09 21.7929 173.182 23.7961 173.182 26.8232H162.142C162.676 23.529 164.635 21.7929 167.84 21.7929ZM188.391 40V6.88H183.004V40H188.391ZM200.632 40.5787C204.059 40.5787 207.042 39.0206 207.977 36.7503L208.377 40H213.141V26.6452C213.141 20.5465 209.49 17.3413 203.57 17.3413C197.605 17.3413 193.687 20.4574 193.687 25.2206H198.317C198.317 22.9058 200.097 21.5703 203.303 21.5703C206.063 21.5703 207.843 22.7723 207.843 25.7548V26.2445L201.255 26.7342C196.046 27.1348 193.108 29.6723 193.108 33.7232C193.108 37.8632 195.957 40.5787 200.632 40.5787ZM202.412 36.4832C199.964 36.4832 198.628 35.5039 198.628 33.5006C198.628 31.72 199.919 30.6071 203.303 30.2955L207.888 29.9394V31.0968C207.888 34.48 205.751 36.4832 202.412 36.4832ZM223.907 40V28.1587C223.907 24.5974 225.955 22.2826 229.293 22.2826C232.098 22.2826 233.923 24.0632 233.923 27.7581V40H239.354V26.4671C239.354 20.769 236.505 17.3413 230.985 17.3413C228.002 17.3413 225.331 18.6323 223.951 20.8581L223.506 18.009H218.476V40H223.907ZM253.727 40.5787C257.066 40.5787 259.915 39.1097 261.25 36.5723L261.606 40H266.592V6.88H261.206V20.8135C259.826 18.6323 257.11 17.3413 254.038 17.3413C247.406 17.3413 243.399 22.2381 243.399 29.0935C243.399 35.9045 247.361 40.5787 253.727 40.5787ZM254.929 35.5929C251.145 35.5929 248.83 32.8329 248.83 28.9155C248.83 24.9981 251.145 22.1935 254.929 22.1935C258.713 22.1935 261.161 24.9535 261.161 28.9155C261.161 32.8774 258.713 35.5929 254.929 35.5929Z" fill="white"/>
</svg>
